<svg id="SvgjsSvg1030" width="24" height="17" xmlns="http://www.w3.org/2000/svg" version="1.1" xmlns:xlink="http://www.w3.org/1999/xlink" xmlns:svgjs="http://svgjs.com/svgjs" viewBox="0 0 24 17"><title>Car</title><desc>Created with Avocode.</desc><defs id="SvgjsDefs1031"></defs><path id="SvgjsPath1032" d="M186.48 729.506L182.577 725.5409999999999C182.238 725.1969999999999 181.768 724.9999999999999 181.285 724.9999999999999H179V722.6059999999999C179 721.7199999999999 178.28 720.9999999999999 177.395 720.9999999999999H164.60500000000002C163.72000000000003 720.9999999999999 163.00000000000003 721.7199999999999 163.00000000000003 722.6059999999999V733.3939999999999C163.00000000000003 734.2799999999999 163.72000000000003 734.9999999999999 164.60500000000002 734.9999999999999H165.05100000000002C165.29600000000002 736.6919999999999 166.74200000000002 737.9999999999999 168.50000000000003 737.9999999999999C170.25800000000004 737.9999999999999 171.70400000000004 736.6919999999999 171.94900000000004 734.9999999999999H177.05100000000004C177.29600000000005 736.6919999999999 178.74200000000005 737.9999999999999 180.50000000000006 737.9999999999999C182.25800000000007 737.9999999999999 183.70400000000006 736.6919999999999 183.94900000000007 734.9999999999999H185.18800000000007C186.18700000000007 734.9999999999999 187.00000000000009 734.1859999999999 187.00000000000009 733.1869999999999V730.7769999999999C187.00000000000009 730.3 186.81500000000008 729.8489999999999 186.48000000000008 729.506ZM165 723H177V733H171.649C171.085 731.822 169.891 731 168.5 731C167.109 731 165.915 731.822 165.351 733H165ZM168.5 736C167.673 736 167 735.327 167 734.5C167 733.673 167.673 733 168.5 733C169.327 733 170 733.673 170 734.5C170 735.327 169.327 736 168.5 736ZM180.5 736C179.673 736 179 735.327 179 734.5C179 734.398 179.01 734.296 179.03 734.199C179.171 733.5039999999999 179.789 733 180.5 733C181.327 733 182 733.673 182 734.5C182 735.327 181.327 736 180.5 736ZM185 733H183.649C183.085 731.822 181.891 731 180.5 731C179.966 731 179.459 731.133 179 731.353V727H181.207L185 730.854Z " fill="#005656" fill-opacity="1" transform="matrix(1,0,0,1,-163,-721)"></path></svg>