<svg id="SvgjsSvg1021" width="12" height="17" xmlns="http://www.w3.org/2000/svg" version="1.1" xmlns:xlink="http://www.w3.org/1999/xlink" xmlns:svgjs="http://svgjs.com/svgjs" viewBox="0 0 12 17"><title>Location</title><desc>Created with Avocode.</desc><defs id="SvgjsDefs1022"></defs><path id="SvgjsPath1023" d="M702.823 2434.69L702.067 2433.7000000000003C701.578 2433.07 697.291 2427.3900000000003 697.291 2424.4900000000002C697.291 2421.3 699.773 2418.71 702.8230000000001 2418.71C705.873 2418.71 708.354 2421.3 708.354 2424.4900000000002C708.354 2427.3900000000003 704.067 2433.07 703.5780000000001 2433.7000000000003ZM702.823 2420.73C700.84 2420.73 699.227 2422.42 699.227 2424.4900000000002C699.227 2425.92 701.1999999999999 2429.1400000000003 702.823 2431.4100000000003C704.4449999999999 2429.1400000000003 706.418 2425.9100000000003 706.418 2424.4900000000002C706.418 2422.42 704.805 2420.73 702.823 2420.73ZM703.791 2424.37C703.791 2424.93 703.3570000000001 2425.38 702.8230000000001 2425.38C702.2880000000001 2425.38 701.854 2424.9300000000003 701.854 2424.37C701.854 2423.81 702.288 2423.3599999999997 702.8230000000001 2423.3599999999997C703.3570000000001 2423.3599999999997 703.791 2423.8099999999995 703.791 2424.37Z " fill="#646464" fill-opacity="1" transform="matrix(1,0,0,1,-697,-2418)"></path></svg>