<svg id="SvgjsSvg1033" width="10" height="8" xmlns="http://www.w3.org/2000/svg" version="1.1" xmlns:xlink="http://www.w3.org/1999/xlink" xmlns:svgjs="http://svgjs.com/svgjs" viewBox="0 0 10 8"><title>Shape 9 copy</title><desc>Created with Avocode.</desc><defs id="SvgjsDefs1034"></defs><path id="SvgjsPath1035" d="M498.772 629.939C498.513 629.939 498.264 629.836 498.079 629.65L496.118 627.674C495.735 627.288 495.735 626.663 496.118 626.2769999999999C496.501 625.891 497.122 625.891 497.505 626.2769999999999L498.706 627.4879999999999L502.922 622.39C503.26800000000003 621.971 503.886 621.915 504.302 622.264C504.718 622.613 504.774 623.236 504.428 623.6560000000001L499.525 629.585C499.349 629.798 499.092 629.9390000000001 498.81699999999995 629.9390000000001C498.80199999999996 629.9390000000001 498.787 629.9390000000001 498.77199999999993 629.9390000000001Z " fill="#646464" fill-opacity="1" transform="matrix(1,0,0,1,-495,-622)"></path></svg>