<svg id="SvgjsSvg1018" width="13" height="16" xmlns="http://www.w3.org/2000/svg" version="1.1" xmlns:xlink="http://www.w3.org/1999/xlink" xmlns:svgjs="http://svgjs.com/svgjs" viewBox="0 0 13 16"><title>Phone</title><desc>Created with Avocode.</desc><defs id="SvgjsDefs1019"></defs><path id="SvgjsPath1020" d="M706.195 2401.95C705.5920000000001 2401.95 704.993 2401.7599999999998 704.488 2401.3999999999996L703.7260000000001 2400.74C700.8730000000002 2398.25 698.9190000000001 2395.0299999999997 698.0770000000001 2391.41L697.8750000000001 2390.5499999999997C697.7190000000002 2389.3599999999997 698.2700000000001 2388.2999999999997 699.2600000000001 2387.74L700.1210000000001 2387.2599999999998C700.7020000000001 2386.95 701.2990000000001 2386.8999999999996 701.8690000000001 2387.1099999999997C703.0650000000002 2387.5599999999995 703.6240000000001 2389.0299999999997 703.7240000000002 2389.3199999999997C703.7520000000002 2389.3999999999996 703.7680000000001 2389.49 703.7740000000001 2389.5699999999997L703.7840000000001 2389.7099999999996C703.8210000000001 2390.2099999999996 703.8830000000002 2391.0499999999997 702.9790000000002 2391.6299999999997L701.1170000000002 2393.41C701.0530000000002 2393.47 700.9830000000002 2393.52 700.9100000000002 2393.56C701.4660000000002 2394.87 702.2000000000002 2396.09 703.0950000000001 2397.21C703.1770000000001 2397.16 703.2680000000001 2397.13 703.3640000000001 2397.11L705.9810000000001 2396.54C706.9370000000001 2396.09 707.6560000000001 2396.55 708.0950000000001 2396.83L708.2140000000002 2396.9C708.2870000000001 2396.9500000000003 708.3530000000002 2397 708.4110000000002 2397.07C708.6250000000002 2397.29 709.6800000000002 2398.4900000000002 709.4930000000002 2399.71C709.4030000000001 2400.29 709.0630000000002 2400.76 708.5080000000002 2401.08L707.6320000000002 2401.5699999999997C707.1850000000002 2401.8199999999997 706.6880000000002 2401.95 706.1950000000002 2401.95ZM704.604 2398.85C704.7660000000001 2399 704.9300000000001 2399.15 705.0980000000001 2399.29L705.782 2399.89C705.9680000000001 2400.02 706.322 2400.04 706.6080000000001 2399.8799999999997L707.4680000000001 2399.3999999999996C707.5010000000001 2399.2599999999998 707.2560000000001 2398.7999999999997 706.9710000000001 2398.4599999999996H706.9620000000001C706.9060000000001 2398.4199999999996 706.839 2398.3799999999997 706.7820000000002 2398.3399999999997C706.7100000000002 2398.37 706.6320000000002 2398.3999999999996 706.5660000000001 2398.4199999999996ZM701.13 2388.94L700.285 2389.44C700.001 2389.59 699.842 2389.9 699.882 2390.2200000000003L700.0659999999999 2390.9800000000005C700.108 2391.1600000000003 700.1539999999999 2391.3400000000006 700.2019999999999 2391.5200000000004L701.6209999999999 2390.1600000000003C701.6649999999998 2390.1200000000003 701.7119999999999 2390.0800000000004 701.7619999999998 2390.05C701.7599999999999 2389.9900000000002 701.7539999999998 2389.9100000000003 701.7489999999998 2389.8500000000004L701.7479999999998 2389.8300000000004C701.5849999999998 2389.4300000000003 701.2899999999998 2389.0000000000005 701.1299999999998 2388.9400000000005Z " fill="#646464" fill-opacity="1" transform="matrix(1,0,0,1,-697,-2386)"></path></svg>