<svg id="SvgjsSvg1009" width="18" height="17" xmlns="http://www.w3.org/2000/svg" version="1.1" xmlns:xlink="http://www.w3.org/1999/xlink" xmlns:svgjs="http://svgjs.com/svgjs" viewBox="0 0 18 17"><title>search icon</title><desc>Created with Avocode.</desc><defs id="SvgjsDefs1010"></defs><path id="SvgjsPath1011" d="M840.596 107.293L835.656 102.328C836.4399999999999 101.25200000000001 836.9079999999999 99.93180000000001 836.9079999999999 98.5001C836.9079999999999 94.9161 834.007 92 830.4409999999999 92C826.8759999999999 92 823.9749999999999 94.9161 823.9749999999999 98.5001C823.9749999999999 102.084 826.8759999999999 105 830.4409999999999 105C831.8659999999999 105 833.18 104.529 834.2489999999999 103.742L839.1899999999999 108.70700000000001C839.3839999999999 108.902 839.6379999999999 109.00000000000001 839.8929999999999 109.00000000000001C840.1469999999999 109.00000000000001 840.4019999999999 108.90200000000002 840.5959999999999 108.70700000000001C840.9849999999999 108.31700000000001 840.9849999999999 107.68400000000001 840.5959999999999 107.293ZM830.441 103C827.9730000000001 103 825.964 100.981 825.964 98.5001C825.964 96.0186 827.9730000000001 93.9999 830.441 93.9999C832.9100000000001 93.9999 834.918 96.01859999999999 834.918 98.5001C834.918 100.98100000000001 832.91 103 830.441 103Z " fill="#000000" fill-opacity="1" transform="matrix(1,0,0,1,-823,-92)"></path></svg>