<svg id="SvgjsSvg1015" width="17" height="15" xmlns="http://www.w3.org/2000/svg" version="1.1" xmlns:xlink="http://www.w3.org/1999/xlink" xmlns:svgjs="http://svgjs.com/svgjs" viewBox="0 0 17 15"><title>Shape 4</title><desc>Created with Avocode.</desc><defs id="SvgjsDefs1016"></defs><path id="SvgjsPath1017" d="M1133.96 99H1127.69C1127.3 99 1126.95 98.7743 1126.78 98.421L1124.72 93.96480000000001C1124.26 93.84070000000001 1123.94 93.40020000000001 1123.99 92.90920000000001C1124 92.79100000000001 1124.03 92.6787 1124.08 92.57720000000002L1123.35 91.00000000000001H1121.99C1121.44 91.00000000000001 1120.99 90.55270000000002 1120.99 90.00000000000001C1120.99 89.44740000000002 1121.44 88.99990000000001 1121.99 88.99990000000001H1123.98C1124.3700000000001 88.99990000000001 1124.73 89.22560000000001 1124.89 89.57910000000001L1126.0500000000002 92.09380000000002L1136.0500000000002 93.00400000000002C1136.3700000000001 93.03410000000002 1136.67 93.22470000000001 1136.8300000000002 93.51360000000003C1136.9900000000002 93.80180000000003 1137.0000000000002 94.15140000000002 1136.8500000000001 94.44740000000003L1134.8500000000001 98.44720000000002C1134.68 98.78600000000003 1134.3400000000001 99.00000000000003 1133.96 99.00000000000003ZM1128.33 97H1133.34L1134.4099999999999 94.8634L1127.0199999999998 94.1905ZM1129.97 101.5C1129.97 102.328 1129.3 103 1128.47 103C1127.65 103 1126.98 102.328 1126.98 101.5C1126.98 100.671 1127.65 100 1128.47 100C1129.3 100 1129.97 100.671 1129.97 101.5ZM1134.96 101.5C1134.96 102.328 1134.29 103 1133.46 103C1132.63 103 1131.96 102.328 1131.96 101.5C1131.96 100.671 1132.63 100 1133.46 100C1134.29 100 1134.96 100.671 1134.96 101.5Z " fill="#000000" fill-opacity="1" transform="matrix(1,0,0,1,-1120,-88)"></path></svg>