<svg id="SvgjsSvg1012" width="13" height="13" xmlns="http://www.w3.org/2000/svg" version="1.1" xmlns:xlink="http://www.w3.org/1999/xlink" xmlns:svgjs="http://svgjs.com/svgjs" viewBox="0 0 13 13"><title>Shape 5</title><desc>Created with Avocode.</desc><defs id="SvgjsDefs1013"></defs><path id="SvgjsPath1014" d="M1009.61 100.837C1008.89 99.4068 1007.74 98.3122 1006.36 97.6637C1007 96.9547 1007.39 96.02680000000001 1007.39 95C1007.39 92.7941 1005.61 91 1003.43 91C1001.2399999999999 91 999.459 92.7941 999.459 95C999.459 96.029 999.856 96.9585 1000.4899999999999 97.668C999.156 98.2984 998.0259999999998 99.34490000000001 997.305 100.709C996.929 101.418 996.948 102.24900000000001 997.3539999999999 102.932C997.752 103.601 998.453 104 999.2289999999999 104H1007.6299999999999C1008.3999999999999 104 1009.1099999999999 103.6 1009.5199999999999 102.93C1009.9099999999999 102.28500000000001 1009.9499999999998 101.503 1009.6099999999999 100.837ZM1001.44 95C1001.44 93.8974 1002.33 93.0001 1003.4300000000001 93.0001C1004.5200000000001 93.0001 1005.4100000000001 93.8974 1005.4100000000001 95C1005.4100000000001 96.1025 1004.5200000000001 97 1003.4300000000001 97C1002.33 97 1001.44 96.1025 1001.44 95ZM1007.83 101.882C1007.8100000000001 101.91000000000001 1007.75 102 1007.63 102H999.229C999.2 102 999.113 102 999.0550000000001 101.903C999.0290000000001 101.85900000000001 998.993 101.76700000000001 999.0550000000001 101.649C999.9180000000001 100.016 1001.59 99 1003.4300000000001 99C1005.3000000000001 99 1006.99 100.051 1007.84 101.74C1007.85 101.759 1007.88 101.806 1007.83 101.88199999999999Z " fill="#000000" fill-opacity="1" transform="matrix(1,0,0,1,-997,-91)"></path></svg>