<svg xmlns="http://www.w3.org/2000/svg" xmlns:xlink="http://www.w3.org/1999/xlink"><defs><svg id="arrow-bottom" version="1.1" viewBox="0 0 28 10" xmlns="http://www.w3.org/2000/svg"><title>Right</title><path id="SvgjsPath1011" d="M709 736l1-2 13 7.429L736 734l1 2-14 8z" fill="#b8b8b8" fill-opacity="1" transform="translate(-709 -734)"/></svg><svg id="arrow-left" version="1.1" viewBox="0 0 10 28" xmlns="http://www.w3.org/2000/svg"><title>Left</title><path id="SvgjsPath1029" d="M140 1053l2 1-7.429 13 7.429 13-2 1-8-14z" fill="#b8b8b8" fill-opacity="1" transform="translate(-132 -1053)"/></svg><svg id="arrow-right" version="1.1" viewBox="0 0 10 28" xmlns="http://www.w3.org/2000/svg"><title>Right</title><path id="SvgjsPath1026" d="M1236 1973l-2-1 7.429-13-7.429-13 2-1 8 14z" fill="#b8b8b8" fill-opacity="1" transform="translate(-1234 -1945)"/></svg><svg id="arrow-top" version="1.1" viewBox="0 0 28 10" xmlns="http://www.w3.org/2000/svg"><title>Right</title><path id="SvgjsPath1008" d="M737 246l-1 2-13-7.429L710 248l-1-2 14-8z" fill="#b8b8b8" fill-opacity="1" transform="translate(-709 -238)"/></svg><svg id="badge" version="1.1" viewBox="0 0 17 17" xmlns="http://www.w3.org/2000/svg"><title>Shape 6</title><path id="SvgjsPath1008" d="M710.199 39.67a5.678 5.678 0 0 0-4.042-1.674 5.678 5.678 0 0 0-4.041 1.674l-5.375 5.376a2.855 2.855 0 0 0-.842 2.033c0 .768.299 1.49.842 2.034l4.015 4.014a2.857 2.857 0 0 0 2.034.843c.768 0 1.49-.3 2.033-.843l5.376-5.374a5.682 5.682 0 0 0 1.674-4.042 5.679 5.679 0 0 0-1.674-4.04zm-1.347 6.736l-5.376 5.374a.995.995 0 0 1-1.373 0l-4.015-4.014a.967.967 0 0 1-.284-.687c0-.259.101-.503.284-.686l5.375-5.376a3.786 3.786 0 0 1 2.694-1.116c1.018 0 1.975.396 2.695 1.116a3.788 3.788 0 0 1 1.116 2.694 3.79 3.79 0 0 1-1.116 2.695zm-3.057-3.578a1.013 1.013 0 1 0 0 2.027 1.013 1.013 0 0 0 0-2.027z" fill="#000" fill-opacity="1" transform="translate(-695 -37)"/></svg><svg id="car" version="1.1" viewBox="0 0 24 17" xmlns="http://www.w3.org/2000/svg"><title>Car</title><path id="SvgjsPath1032" d="M186.48 729.506l-3.903-3.965a1.824 1.824 0 0 0-1.292-.541H179v-2.394c0-.886-.72-1.606-1.605-1.606h-12.79c-.885 0-1.605.72-1.605 1.606v10.788c0 .886.72 1.606 1.605 1.606h.446c.245 1.692 1.691 3 3.449 3 1.758 0 3.204-1.308 3.449-3h5.102c.245 1.692 1.691 3 3.449 3 1.758 0 3.204-1.308 3.449-3h1.239c.999 0 1.812-.814 1.812-1.813v-2.41a1.81 1.81 0 0 0-.52-1.271zM165 723h12v10h-5.351a3.495 3.495 0 0 0-3.149-2 3.495 3.495 0 0 0-3.149 2H165zm3.5 13c-.827 0-1.5-.673-1.5-1.5s.673-1.5 1.5-1.5 1.5.673 1.5 1.5-.673 1.5-1.5 1.5zm12 0a1.502 1.502 0 0 1-1.47-1.801A1.503 1.503 0 0 1 180.5 733c.827 0 1.5.673 1.5 1.5s-.673 1.5-1.5 1.5zm4.5-3h-1.351a3.495 3.495 0 0 0-3.149-2c-.534 0-1.041.133-1.5.353V727h2.207l3.793 3.854z" fill="#005656" fill-opacity="1" transform="translate(-163 -721)"/></svg><svg version="1.1" viewBox="0 0 15 14" id="hamburger" xmlns="http://www.w3.org/2000/svg"><path d="M0 2V0h15v2zm0 6V6h15v2zm0 6v-2h15v2z" fill="#fff" fill-opacity="1"/></svg><svg viewBox="0 0 14 15.906" id="home" xmlns="http://www.w3.org/2000/svg"><path d="M13 15.906H9a1 1 0 0 1-1-1V9.934H6v4.972a1 1 0 0 1-1 1H1a1 1 0 0 1-1-1v-7.2a2.837 2.837 0 0 1 .832-2L6.293.276a1 1 0 0 1 1.414 0l5.461 5.431a2.833 2.833 0 0 1 .832 2v7.2a1 1 0 0 1-1 .999zm-3-1.989h2v-6.2a.832.832 0 0 0-.246-.59L7 2.396 2.246 7.124A.836.836 0 0 0 2 7.715v6.2h2V8.946a1 1 0 0 1 1-1h4a1 1 0 0 1 1 1v4.973z"/></svg><svg id="location" version="1.1" viewBox="0 0 12 17" xmlns="http://www.w3.org/2000/svg"><title>Location</title><path id="SvgjsPath1023" d="M702.823 2434.69l-.756-.99c-.489-.63-4.776-6.31-4.776-9.21 0-3.19 2.482-5.78 5.532-5.78s5.531 2.59 5.531 5.78c0 2.9-4.287 8.58-4.776 9.21zm0-13.96c-1.983 0-3.596 1.69-3.596 3.76 0 1.43 1.973 4.65 3.596 6.92 1.622-2.27 3.595-5.5 3.595-6.92 0-2.07-1.613-3.76-3.595-3.76zm.968 3.64c0 .56-.434 1.01-.968 1.01-.535 0-.969-.45-.969-1.01s.434-1.01.969-1.01c.534 0 .968.45.968 1.01z" fill="#646464" fill-opacity="1" transform="translate(-697 -2418)"/></svg><svg id="logo" version="1" class="jmdl-js" viewBox="0 0 519 216" xmlns="http://www.w3.org/2000/svg"><path d="M62.767 129.371V48.777H36.125c-20.722 0-26.642-4.478-26.642-20.15 0-18.469 5.92-20.148 71.045-20.148 65.124 0 71.045 1.68 71.045 20.149 0 15.671-5.92 20.149-26.642 20.149H98.289v80.594c0 73.879-1.48 80.595-17.761 80.595s-17.761-6.716-17.761-80.595zm132.416 61.744c-28.515-26.193-28.515-87.22 0-113.413 11.287-10.368 25.63-18.851 31.875-18.851 18.982 0 47.743 33.617 53.867 62.965 5.68 27.218 5.05 27.704-35.884 27.704-29.408 0-40.564 3.704-37.921 12.593 2.059 6.926 13.382 13.28 25.162 14.119 49.267 3.51 49 3.345 30.82 18.943-23.11 19.83-43.22 18.628-67.919-4.06zm51.856-84.411c-4.802-16.344-35.16-16.344-39.963 0-2.343 7.976 4.983 12.593 19.982 12.593 14.998 0 22.324-4.617 19.98-12.593zm77.182 88.47c-18.871-16.191-12.41-19.198 33.825-15.74 36.702 2.746 30.567-24.592-8.01-35.693-45.59-13.118-58.293-39.935-30.969-65.373 24.989-23.262 53.6-25.013 77.245-4.726 18.871 16.192 12.41 19.199-33.825 15.74-36.959-2.764-29.29 16.455 15.54 38.951 44.545 22.353 48.076 32.132 22.202 61.484-20.977 23.797-51.971 25.982-76.008 5.358zm134.366-1.04c-8.485-9.625-13.955-33.319-13.955-60.445 0-24.538-3.996-44.615-8.88-44.615-4.885 0-8.881-6.8-8.881-15.112 0-8.31 3.996-15.111 8.88-15.111 4.885 0 8.881-6.8 8.881-15.112 0-8.31 1.671-15.111 3.714-15.111s10.035-2.752 17.761-6.115c10.07-4.384 14.047-.105 14.047 15.111 0 12.152 5.695 21.227 13.321 21.227 7.327 0 13.321 6.8 13.321 15.111 0 8.312-5.994 15.112-13.32 15.112-9.868 0-13.322 11.753-13.322 45.334 0 24.934 3.997 45.335 8.881 45.335s8.88 6.8 8.88 15.112c0 19.74-21.64 19.344-39.328-.72z" id="path2680" fill="#000"/></svg><svg id="ok" version="1.1" viewBox="0 0 10 8" xmlns="http://www.w3.org/2000/svg"><title>Shape 9 copy</title><path id="SvgjsPath1035" d="M498.772 629.939a.976.976 0 0 1-.693-.289l-1.961-1.976a.993.993 0 0 1 0-1.397.975.975 0 0 1 1.387 0l1.201 1.211 4.216-5.098a.975.975 0 0 1 1.38-.126.994.994 0 0 1 .126 1.392l-4.903 5.929a.934.934 0 0 1-.708.354h-.045z" fill="#646464" fill-opacity="1" transform="translate(-495 -622)"/></svg><svg id="phone" version="1.1" viewBox="0 0 13 16" xmlns="http://www.w3.org/2000/svg"><title>Phone</title><path id="SvgjsPath1020" d="M706.195 2401.95c-.603 0-1.202-.19-1.707-.55l-.762-.66c-2.853-2.49-4.807-5.71-5.649-9.33l-.202-.86c-.156-1.19.395-2.25 1.385-2.81l.861-.48c.581-.31 1.178-.36 1.748-.15 1.196.45 1.755 1.92 1.855 2.21.028.08.044.17.05.25l.01.14c.037.5.099 1.34-.805 1.92l-1.862 1.78c-.064.06-.134.11-.207.15.556 1.31 1.29 2.53 2.185 3.65a.838.838 0 0 1 .269-.1l2.617-.57c.956-.45 1.675.01 2.114.29l.119.07c.073.05.139.1.197.17.214.22 1.269 1.42 1.082 2.64-.09.58-.43 1.05-.985 1.37l-.876.49c-.447.25-.944.38-1.437.38zm-1.591-3.1c.162.15.326.3.494.44l.684.6c.186.13.54.15.826-.01l.86-.48c.033-.14-.212-.6-.497-.94h-.009c-.056-.04-.123-.08-.18-.12-.072.03-.15.06-.216.08zm-3.474-9.91l-.845.5a.77.77 0 0 0-.403.78l.184.76c.042.18.088.36.136.54l1.419-1.36a.923.923 0 0 1 .141-.11 4.473 4.473 0 0 0-.013-.2l-.001-.02c-.163-.4-.458-.83-.618-.89z" fill="#646464" fill-opacity="1" transform="translate(-697 -2386)"/></svg><svg version="1" viewBox="0 0 50 50" id="resize" xmlns="http://www.w3.org/2000/svg"><path style="text-indent:0;text-align:start;line-height:normal;text-transform:none;block-progression:tb;-inkscape-font-specification:Bitstream Vera Sans" d="M28.406 5a1.001 1.001 0 0 0 .188 2h13L7 41.594v-13a1 1 0 0 0-1.219-1 1 1 0 0 0-.781 1V45h16.406a1 1 0 1 0 0-2h-13L43 8.406v13a1 1 0 1 0 2 0V5H28.594a1 1 0 0 0-.094 0 1.001 1.001 0 0 0-.094 0z" overflow="visible" fill="#fff"/></svg><svg id="search" version="1.1" viewBox="0 0 18 17" xmlns="http://www.w3.org/2000/svg"><title>search icon</title><path id="SvgjsPath1011" d="M840.596 107.293l-4.94-4.965a6.477 6.477 0 0 0 1.252-3.828c0-3.584-2.901-6.5-6.467-6.5-3.565 0-6.466 2.916-6.466 6.5s2.901 6.5 6.466 6.5a6.4 6.4 0 0 0 3.808-1.258l4.941 4.965a.988.988 0 0 0 1.406 0 1.003 1.003 0 0 0 0-1.414zM830.441 103c-2.468 0-4.477-2.019-4.477-4.5s2.009-4.5 4.477-4.5c2.469 0 4.477 2.019 4.477 4.5s-2.008 4.5-4.477 4.5z" fill="#000" fill-opacity="1" transform="translate(-823 -92)"/></svg><svg id="shopping-cart" version="1.1" viewBox="0 0 17 15" xmlns="http://www.w3.org/2000/svg"><title>Shape 4</title><path id="SvgjsPath1017" d="M1133.96 99h-6.27c-.39 0-.74-.226-.91-.579l-2.06-4.456a.992.992 0 0 1-.73-1.056c.01-.118.04-.23.09-.332l-.73-1.577h-1.36a1.001 1.001 0 0 1 0-2h1.99c.39 0 .75.226.91.58l1.16 2.514 10 .91c.32.03.62.22.78.51.16.288.17.637.02.933l-2 4a.993.993 0 0 1-.89.553zm-5.63-2h5.01l1.07-2.137-7.39-.672zm1.64 4.5a1.5 1.5 0 0 1-1.5 1.5c-.82 0-1.49-.672-1.49-1.5 0-.829.67-1.5 1.49-1.5.83 0 1.5.671 1.5 1.5zm4.99 0a1.5 1.5 0 1 1-2.999.001 1.5 1.5 0 0 1 2.999-.001z" fill="#000" fill-opacity="1" transform="translate(-1120 -88)"/></svg><svg id="user" version="1.1" viewBox="0 0 13 13" xmlns="http://www.w3.org/2000/svg"><title>Shape 5</title><path id="SvgjsPath1014" d="M1009.61 100.837a6.93 6.93 0 0 0-3.25-3.173 3.953 3.953 0 0 0 1.03-2.664c0-2.206-1.78-4-3.96-4-2.19 0-3.971 1.794-3.971 4 0 1.029.397 1.959 1.031 2.668a6.954 6.954 0 0 0-3.185 3.041 2.253 2.253 0 0 0 .049 2.223 2.164 2.164 0 0 0 1.875 1.068h8.401c.77 0 1.48-.4 1.89-1.07a2.14 2.14 0 0 0 .09-2.093zM1001.44 95c0-1.103.89-2 1.99-2 1.09 0 1.98.897 1.98 2s-.89 2-1.98 2c-1.1 0-1.99-.897-1.99-2zm6.39 6.882c-.02.028-.08.118-.2.118h-8.401c-.029 0-.116 0-.174-.097a.25.25 0 0 1 0-.254A4.939 4.939 0 0 1 1003.43 99c1.87 0 3.56 1.051 4.41 2.74.01.019.04.066-.01.142z" fill="#000" fill-opacity="1" transform="translate(-997 -91)"/></svg></defs></svg>